<svg width="315" height="80" fill="none" xmlns="http://www.w3.org/2000/svg"><path d="M52.033 16.44c-.426.8-1.146 1.547-2.16 2.24-1.013.693-2.24 1.147-3.68 1.36-.266-1.28-.72-2.587-1.36-3.92-.586-1.387-1.466-2.64-2.64-3.76-1.12-1.12-2.56-2.053-4.32-2.8-1.706-.747-3.813-1.12-6.32-1.12-2.24 0-4.48.453-6.72 1.36-2.24.853-4.266 2.24-6.08 4.16-1.813 1.92-3.306 4.427-4.48 7.52-1.12 3.04-1.68 6.747-1.68 11.12 0 4.32.587 8.16 1.76 11.52 1.174 3.36 2.774 6.187 4.8 8.48 2.027 2.24 4.374 3.947 7.04 5.12 2.72 1.173 5.627 1.76 8.72 1.76 3.574 0 6.587-.587 9.04-1.76 2.507-1.227 4.614-2.827 6.32-4.8.32.107.694.32 1.12.64.427.32.694.64.8.96-.426.747-1.12 1.68-2.08 2.8-.96 1.12-2.266 2.213-3.92 3.28-1.6 1.013-3.626 1.893-6.08 2.64-2.4.8-5.28 1.2-8.64 1.2a26.85 26.85 0 01-9.6-1.76c-3.093-1.227-5.84-3.04-8.24-5.44-2.4-2.453-4.32-5.493-5.76-9.12-1.44-3.68-2.16-7.947-2.16-12.8 0-4.267.774-8.267 2.32-12 1.547-3.787 3.627-7.067 6.24-9.84a30.243 30.243 0 019.2-6.56c3.52-1.6 7.254-2.4 11.2-2.4 3.2 0 5.894.453 8.08 1.36 2.24.907 4.027 2 5.36 3.28 1.387 1.28 2.374 2.613 2.96 4 .64 1.333.96 2.427.96 3.28z" fill="#408F95"/><path d="M67.88 40.68c0 3.36.4 6.293 1.2 8.8.853 2.507 1.946 4.613 3.28 6.32 1.386 1.653 2.96 2.907 4.72 3.76a13.187 13.187 0 005.68 1.28c4.266 0 7.52-1.413 9.76-4.24 2.24-2.88 3.36-7.2 3.36-12.96 0-2.773-.32-5.36-.96-7.76-.64-2.4-1.6-4.48-2.88-6.24-1.227-1.76-2.747-3.147-4.56-4.16-1.814-1.013-3.894-1.52-6.24-1.52-1.707 0-3.36.32-4.96.96-1.6.64-3.014 1.653-4.24 3.04-1.227 1.333-2.24 3.067-3.04 5.2-.747 2.08-1.12 4.587-1.12 7.52zm-6.72 2.48c0-3.253.586-6.267 1.76-9.04 1.173-2.827 2.746-5.227 4.72-7.2a21.791 21.791 0 017.04-4.72c2.72-1.173 5.6-1.76 8.64-1.76 3.306 0 6.16.56 8.56 1.68 2.453 1.12 4.453 2.613 6 4.48 1.6 1.867 2.773 4.053 3.52 6.56.8 2.507 1.2 5.147 1.2 7.92 0 3.253-.507 6.293-1.52 9.12-1.014 2.827-2.48 5.307-4.4 7.44-1.867 2.08-4.16 3.733-6.88 4.96-2.72 1.227-5.814 1.84-9.28 1.84-2.56 0-5.014-.48-7.36-1.44a18.827 18.827 0 01-6.24-4.16c-1.76-1.813-3.174-4.027-4.24-6.64-1.014-2.667-1.52-5.68-1.52-9.04zm82.874-5.12c0-4.533-.933-7.84-2.8-9.92-1.867-2.133-4.507-3.2-7.92-3.2-1.227 0-2.453.24-3.68.72a16.158 16.158 0 00-3.44 1.76 19.952 19.952 0 00-3.04 2.64 22.75 22.75 0 00-2.56 3.04v29.28c-.747.427-1.733.72-2.96.88-1.173.213-2.293.32-3.36.32V22.6c1.76-.907 3.733-1.36 5.92-1.36v7.92c.693-.907 1.573-1.867 2.64-2.88a24.373 24.373 0 013.68-2.88 21.474 21.474 0 014.48-2.08c1.653-.587 3.413-.88 5.28-.88 4.32 0 7.733 1.307 10.24 3.92 2.56 2.613 3.84 6.347 3.84 11.2v26.8c-.747.427-1.733.72-2.96.88-1.173.213-2.293.32-3.36.32V38.04zm15.265-13.52c.427-.587 1.093-1.12 2-1.6.96-.533 2-.8 3.12-.8h2.56V10.6a8.211 8.211 0 012.96-1.52c1.173-.373 2.293-.56 3.36-.56v13.6h15.68c-.053.907-.32 1.68-.8 2.32-.427.587-.987.88-1.68.88h-13.2v26.24c0 1.707.187 3.093.56 4.16.427 1.013.987 1.813 1.68 2.4a5.666 5.666 0 002.4 1.2c.907.213 1.84.32 2.8.32 1.76 0 3.227-.347 4.4-1.04 1.173-.693 2.133-1.413 2.88-2.16.747.213 1.227.667 1.44 1.36-.267.427-.693.987-1.28 1.68-.587.693-1.36 1.387-2.32 2.08-.96.64-2.107 1.2-3.44 1.68-1.333.48-2.827.72-4.48.72a15.66 15.66 0 01-4.24-.56 9.274 9.274 0 01-3.52-1.84c-.96-.853-1.733-2-2.32-3.44-.587-1.44-.88-3.227-.88-5.36V25.32h-7.68v-.8zm75.021 35.52c-.16.267-.427.587-.8.96-.32.373-.694.747-1.12 1.12-.427.32-.907.613-1.44.88-.48.267-.934.453-1.36.56-1.707-.107-3.147-.747-4.32-1.92-1.174-1.227-1.814-2.827-1.92-4.8-.427.8-1.067 1.653-1.92 2.56-.854.853-1.894 1.653-3.12 2.4-1.174.693-2.534 1.253-4.08 1.68-1.547.48-3.227.72-5.04.72-3.787 0-6.8-.96-9.04-2.88-2.187-1.92-3.28-4.48-3.28-7.68 0-3.307 1.253-6.08 3.76-8.32 2.506-2.24 6.8-3.893 12.88-4.96l9.52-1.68v-3.12c0-3.84-.907-6.773-2.72-8.8-1.76-2.027-4.4-3.04-7.92-3.04-2.187 0-4.054.56-5.6 1.68-1.494 1.067-2.24 2.667-2.24 4.8 0 .96.32 1.813.96 2.56-.48.64-1.254 1.227-2.32 1.76a9.253 9.253 0 01-3.28.96c-.267-.267-.587-.667-.96-1.2-.374-.533-.56-1.253-.56-2.16 0-1.653.48-3.2 1.44-4.64.96-1.44 2.213-2.667 3.76-3.68 1.546-1.067 3.333-1.893 5.36-2.48a22.608 22.608 0 016.32-.88c5.12 0 8.746 1.173 10.88 3.52 2.133 2.293 3.2 5.52 3.2 9.68v20.08c0 2.187.48 3.707 1.44 4.56.96.8 2.08 1.28 3.36 1.44l.16.32zm-22.56-.08c2.773 0 5.12-.64 7.04-1.92 1.973-1.28 3.386-2.933 4.24-4.96V41.56l-10.72 1.92c-2.88.533-5.094 1.44-6.64 2.72-1.494 1.28-2.24 3.12-2.24 5.52 0 2.667.8 4.72 2.4 6.16 1.653 1.387 3.626 2.08 5.92 2.08zm64.76-30.08c-.32.587-.96 1.2-1.92 1.84-.907.64-2.054 1.04-3.44 1.2-.16-.907-.48-1.867-.96-2.88a8.534 8.534 0 00-1.92-2.88c-.854-.907-1.92-1.627-3.2-2.16-1.28-.587-2.827-.88-4.64-.88-1.494 0-3.014.293-4.56.88-1.494.587-2.854 1.547-4.08 2.88-1.227 1.333-2.24 3.04-3.04 5.12-.747 2.08-1.12 4.613-1.12 7.6 0 3.2.426 6 1.28 8.4.853 2.347 2 4.32 3.44 5.92 1.44 1.547 3.093 2.72 4.96 3.52a16.41 16.41 0 006 1.12c2.72 0 5.013-.4 6.88-1.2 1.92-.853 3.546-2.053 4.88-3.6.32.053.64.24.96.56.32.32.533.613.64.88-.427.747-1.094 1.6-2 2.56-.854.907-1.947 1.76-3.28 2.56-1.334.8-2.88 1.467-4.64 2-1.76.587-3.76.88-6 .88-2.667 0-5.2-.453-7.6-1.36a17.825 17.825 0 01-6.24-4.08c-1.76-1.813-3.174-4.027-4.24-6.64-1.014-2.613-1.52-5.653-1.52-9.12 0-3.04.56-5.893 1.68-8.56 1.12-2.72 2.64-5.093 4.56-7.12a21.326 21.326 0 016.96-4.88c2.666-1.227 5.546-1.84 8.64-1.84 2.56 0 4.693.373 6.4 1.12 1.706.693 3.066 1.547 4.08 2.56 1.066.96 1.84 1.973 2.32 3.04.48 1.067.72 1.92.72 2.56zm5.826-5.36c.427-.587 1.093-1.12 2-1.6.96-.533 2-.8 3.12-.8h2.56V10.6a8.211 8.211 0 012.96-1.52c1.173-.373 2.293-.56 3.36-.56v13.6h15.68c-.053.907-.32 1.68-.8 2.32-.427.587-.987.88-1.68.88h-13.2v26.24c0 1.707.187 3.093.56 4.16.427 1.013.987 1.813 1.68 2.4a5.666 5.666 0 002.4 1.2c.907.213 1.84.32 2.8.32 1.76 0 3.227-.347 4.4-1.04 1.173-.693 2.133-1.413 2.88-2.16.747.213 1.227.667 1.44 1.36-.267.427-.693.987-1.28 1.68-.587.693-1.36 1.387-2.32 2.08-.96.64-2.107 1.2-3.44 1.68-1.333.48-2.827.72-4.48.72a15.66 15.66 0 01-4.24-.56 9.274 9.274 0 01-3.52-1.84c-.96-.853-1.733-2-2.32-3.44-.587-1.44-.88-3.227-.88-5.36V25.32h-7.68v-.8z" fill="#0D2936"/></svg>